<svg xmlns="http://www.w3.org/2000/svg" viewBox="0 0 192 192">
  <rect width="192" height="192" rx="40" fill="#faf7f2"/>
  <path d="M 58 62 C 38 52, 28 72, 33 92 C 28 102, 33 127, 53 142 C 63 152, 78 157, 96 157 C 114 157, 129 152, 139 142 C 159 127, 164 102, 159 92 C 164 72, 154 52, 134 62 C 129 47, 114 37, 96 39 C 78 37, 63 47, 58 62 Z" fill="#e8b4f8" stroke="#c89ad8" stroke-width="1.5"/>
  <path d="M 96 45 Q 94 75, 96 105 Q 98 130, 96 152" fill="none" stroke="#c89ad8" stroke-width="2.5" opacity="0.4"/>
  <path d="M 66 76 Q 81 66, 96 76 Q 111 86, 126 76" fill="none" stroke="#c89ad8" stroke-width="2" opacity="0.5"/>
  <path d="M 68 96 Q 76 86, 84 96" fill="none" stroke="#2d2a26" stroke-width="3" stroke-linecap="round"/>
  <path d="M 108 96 Q 116 86, 124 96" fill="none" stroke="#2d2a26" stroke-width="3" stroke-linecap="round"/>
  <circle cx="61" cy="111" r="8" fill="#ffb3c6" opacity="0.4"/>
  <circle cx="131" cy="111" r="8" fill="#ffb3c6" opacity="0.4"/>
  <path d="M 78 131 Q 96 148, 114 131" fill="none" stroke="#2d2a26" stroke-width="2.5" stroke-linecap="round"/>
</svg>
