<svg xmlns="http://www.w3.org/2000/svg" viewBox="0 0 32 32">
  <circle cx="16" cy="16" r="15" fill="#faf7f2" stroke="#e8e4de" stroke-width="1"/>
  <path d="M 10 11 C 8 9, 6 12, 7 15 C 6 17, 7 21, 10 23 C 12 25, 14 26, 16 26 C 18 26, 20 25, 22 23 C 25 21, 26 17, 25 15 C 26 12, 24 9, 22 11 C 21 9, 19 8, 16 8.5 C 13 8, 11 9, 10 11 Z" fill="#e8b4f8" stroke="#c89ad8" stroke-width="0.5"/>
  <path d="M 16 9 Q 15.5 14, 16 18 Q 16.5 22, 16 25" fill="none" stroke="#c89ad8" stroke-width="0.8" opacity="0.5"/>
  <path d="M 12 16 Q 13.5 15, 15 16" fill="none" stroke="#2d2a26" stroke-width="1" stroke-linecap="round"/>
  <path d="M 17 16 Q 18.5 15, 20 16" fill="none" stroke="#2d2a26" stroke-width="1" stroke-linecap="round"/>
  <path d="M 13 20 Q 16 23, 19 20" fill="none" stroke="#2d2a26" stroke-width="0.8" stroke-linecap="round"/>
</svg>
